<mxfile host="multicloud-diagrams" agent="PIP package multicloud-diagrams. Generate resources in draw.io compatible format for Cloud infrastructure. Copyrights @ Roman Tsypuk 2023. MIT license." type="MultiCloud">
	<diagram id="diagram_1" name="AWS components">
		<mxGraphModel dx="1015" dy="661" grid="1" gridSize="10" guides="1" tooltips="1" connect="1" arrows="1" fold="1" page="1" pageScale="1" pageWidth="850" pageHeight="1100" math="0" shadow="1">
			<root>
				<mxCell id="0"/>
				<mxCell id="1" parent="0"/>
				<mxCell id="vertex:lambda_function:arn:aws:lambda:eu-west-1:123456789012:function:consumer_lambda" value="&lt;b&gt;Name&lt;/b&gt;: consumer_lambda&lt;BR&gt;&lt;b&gt;ARN&lt;/b&gt;: arn:aws:lambda:eu-west-1:123456789012:function:consumer_lambda&lt;BR&gt;-----------&lt;BR&gt;&lt;b&gt;CodeSize&lt;/b&gt;: 1234&lt;BR&gt;&lt;b&gt;Memory&lt;/b&gt;: 128" style="verticalLabelPosition=bottom;verticalAlign=top;aspect=fixed;align=left;pointerEvents=1;shape=mxgraph.aws3.lambda_function;prIcon=server;fillColor=#F58534;gradientColor=none;html=1;" parent="1" vertex="1">
					<mxGeometry width="69" height="72" as="geometry" x="254.5" y="-470"/>
				</mxCell>
				<mxCell id="vertex:sqs:arn:aws:sqs:eu-west-1:123456789012:int-eu-live-events.fifo" value="&lt;b&gt;Name&lt;/b&gt;: int-eu-live-events.fifo&lt;BR&gt;&lt;b&gt;ARN&lt;/b&gt;: arn:aws:sqs:eu-west-1:123456789012:int-eu-live-events.fifo&lt;BR&gt;-----------&lt;BR&gt;&lt;b&gt;FifoQueue&lt;/b&gt;: TRUE" style="sketch=0;outlineConnect=0;gradientColor=#FF4F8B;gradientDirection=north;fillColor=#BC1356;strokeColor=#ffffff;dashed=0;verticalLabelPosition=bottom;verticalAlign=top;align=left;html=1;fontSize=12;fontStyle=0;aspect=fixed;shape=mxgraph.aws4.resourceIcon;resIcon=mxgraph.aws4.sqs;" parent="1" vertex="1">
					<mxGeometry width="78" height="78" as="geometry" x="250" y="-70"/>
				</mxCell>
				<mxCell id="edge:lambda_function:arn:aws:lambda:eu-west-1:123456789012:function:consumer_lambda:to:sqs:arn:aws:sqs:eu-west-1:123456789012:int-eu-live-events.fifo" style="jettySize=auto;html=1;startArrow=none;endArrow=none;" parent="1" source="vertex:lambda_function:arn:aws:lambda:eu-west-1:123456789012:function:consumer_lambda" target="vertex:sqs:arn:aws:sqs:eu-west-1:123456789012:int-eu-live-events.fifo" edge="2">
					<mxGeometry as="geometry"/>
				</mxCell>
				<mxCell id="label:lambda_function:arn:aws:lambda:eu-west-1:123456789012:function:consumer_lambda:to:sqs:arn:aws:sqs:eu-west-1:123456789012:int-eu-live-events.fifo" value="Action1, Action2&lt;BR&gt;Additional Note added to existing EDGE&lt;BR&gt;Second Note added to existing EDGE&lt;BR&gt;Third Note added to existing EDGE" style="edgeLabel;html=1;align=left;verticalAlign=middle;resizable=0;points=[];labelBackgroundColor=none;" parent="edge:lambda_function:arn:aws:lambda:eu-west-1:123456789012:function:consumer_lambda:to:sqs:arn:aws:sqs:eu-west-1:123456789012:int-eu-live-events.fifo" vertex="1" connectable="0">
					<mxGeometry relative="1" as="geometry">
						<mxPoint as="offset"/>
					</mxGeometry>
				</mxCell>
			</root>
		</mxGraphModel>
	</diagram>
</mxfile>